<svg id="Icon" xmlns="http://www.w3.org/2000/svg" viewBox="0 0 288 288"><title>machine-learning-cloud_detailed</title><path d="M205.5,99c-1.04,0-2.067.054-3.084.144a34.508,34.508,0,0,0-44.271-22.222,38.995,38.995,0,0,0-70.1,13.105C87.7,90.017,87.352,90,87,90a39,39,0,0,0,0,78H205.5a34.5,34.5,0,0,0,0-69Z" fill="#d3eef4"/><path d="M205.5,99c-1.04,0-2.067.054-3.084.144A34.5,34.5,0,0,0,149,81.755a32.989,32.989,0,0,0-52.477,20.434A33,33,0,1,0,93,168H205.5a34.5,34.5,0,0,0,0-69Z" fill="#bde6ee"/><path d="M94.666,199.993A29.107,29.107,0,0,0,115.1,217c1.153,6.24,7.013,10.667,13.333,10.667a14.447,14.447,0,0,0,4.26-.667A12.952,12.952,0,0,0,142,215V127c0-5.487-4.107-10.4-9.333-12-7.087-2.22-15.767,1.473-17.554,9.66-7.867,3.006-13.78,10.473-13.413,19.673a24.323,24.323,0,0,0-8.82,18c.073,1.247.186,2.7.26,4a24.08,24.08,0,0,0,3.526,9.434,27.632,27.632,0,0,0-1.38,2.566c-.266.76-.993,2.714-1.54,4.034a26.623,26.623,0,0,0-.7,11.946c.207.667.887,3.294,1.02,4.04Q94.34,199.174,94.666,199.993Z" fill="#003b4d"/><path d="M193.94,198.333c.134-.746.814-3.333,1.02-4.04a26.615,26.615,0,0,0-.706-11.96c-.547-1.333-1.274-3.273-1.54-4.033a27.379,27.379,0,0,0-1.387-2.547,24.07,24.07,0,0,0,3.54-9.42c.067-1.333.18-2.76.26-4a24.146,24.146,0,0,0-8.82-18c.36-9.2-5.553-16.667-13.44-19.707-1.787-8.186-10.467-11.88-17.534-9.626-5.206,1.633-9.333,6.546-9.333,12v88a12.953,12.953,0,0,0,9.28,12,14.457,14.457,0,0,0,4.26.667c6.347.033,12.2-4.393,13.333-10.667a29.108,29.108,0,0,0,20.461-17.007Q193.659,199.174,193.94,198.333Z" fill="#003b4d"/><path d="M133.553,196.64l.307-5.233a16.189,16.189,0,0,1-3.073-3.12l-5.24.226a20.825,20.825,0,0,1-1.88-4.626l3.92-3.487a16.554,16.554,0,0,1,0-4.38l-3.867-3.54a20.813,20.813,0,0,1,1.94-4.6l5.24.307a16.226,16.226,0,0,1,3.12-3.074l-.227-5.24A20.878,20.878,0,0,1,138.42,158l3.487,3.92a16.683,16.683,0,0,1,4.38.033l3.546-3.866a21.024,21.024,0,0,1,4.6,1.946l-.306,5.24a16.207,16.207,0,0,1,3.066,3.114l5.24-.227a20.814,20.814,0,0,1,1.874,4.627l-3.914,3.486a16.594,16.594,0,0,1,0,4.374l3.867,3.546a20.86,20.86,0,0,1-1.94,4.6l-5.24-.306a17,17,0,0,1-1.453,1.64,16.593,16.593,0,0,1-1.667,1.433l.227,5.24a21.014,21.014,0,0,1-4.627,1.873l-3.487-3.92a16.639,16.639,0,0,1-4.38,0l-3.546,3.867A20.9,20.9,0,0,1,133.553,196.64Z" fill="#f29111"/><circle cx="144" cy="178.333" r="7.333" fill="#003b4d"/><path d="M185.374,178.333a7,7,0,1,0,0,4h8.873a27.121,27.121,0,0,0-1.527-4Zm-6.707,5a3,3,0,1,1,3-3A3,3,0,0,1,178.667,183.333Z" fill="#8aadbf"/><path d="M165.333,200.84a7,7,0,1,0,2.827,2.827l5.333-5.334H193.94a26.6,26.6,0,0,0,1.014-4H171.84ZM162,210a3,3,0,1,1,3-3A3,3,0,0,1,162,210Z" fill="#8aadbf"/><path d="M166,152.84V142.373a7,7,0,1,0-4,0v12.12l11.84,11.84h21.027a23.8,23.8,0,0,0,.253-4H175.493Zm-5-17.174a3,3,0,1,1,3,3A3,3,0,0,1,161,135.666Z" fill="#8aadbf"/><path d="M126,154.493v-12.12a7,7,0,1,0-4,0v10.46l-9.493,9.5H92.88a23.8,23.8,0,0,0,.253,4H114.16Zm-5-18.827a3,3,0,1,1,3,3A3,3,0,0,1,121,135.666Z" fill="#8aadbf"/><path d="M119.84,203.667a7,7,0,1,0,2.827-2.827l-6.507-6.507H93.046a26.6,26.6,0,0,0,1.014,4h20.447Zm6.16.327a3,3,0,1,1-3,3h0A3,3,0,0,1,126,204Z" fill="#8aadbf"/><path d="M109.333,187.333a7,7,0,1,0-6.707-9H95.293a27.121,27.121,0,0,0-1.527,4h8.86A7.013,7.013,0,0,0,109.333,187.333Zm0-10a3,3,0,1,1-3,3A3,3,0,0,1,109.333,177.333Z" fill="#8aadbf"/></svg>
